<svg xmlns="http://www.w3.org/2000/svg" style="width:0; height:0; visibility:hidden;">
    <symbol id="ic-add" viewBox="0 0 24 24">
       <path d="M19 13h-6v6h-2v-6H5v-2h6V5h2v6h6v2z"/> <path d="M0 0h24v24H0z" fill="none"/> 
    </symbol>
    <symbol id="ic-download" viewBox="0 0 24 24">
       <path d="M0 0h24v24H0z" fill="none"/> <path d="M19.35 10.04C18.67 6.59 15.64 4 12 4 9.11 4 6.6 5.64 5.35 8.04 2.34 8.36 0 10.91 0 14c0 3.31 2.69 6 6 6h13c2.76 0 5-2.24 5-5 0-2.64-2.05-4.78-4.65-4.96zM17 13l-5 5-5-5h3V9h4v4h3z"/> 
    </symbol>
    <symbol id="ic-favorite_border" viewBox="0 0 24 24">
       <path d="M0 0h24v24H0z" fill="none"/> <path d="M16.5 3c-1.74 0-3.41.81-4.5 2.09C10.91 3.81 9.24 3 7.5 3 4.42 3 2 5.42 2 8.5c0 3.78 3.4 6.86 8.55 11.54L12 21.35l1.45-1.32C18.6 15.36 22 12.28 22 8.5 22 5.42 19.58 3 16.5 3zm-4.4 15.55l-.1.1-.1-.1C7.14 14.24 4 11.39 4 8.5 4 6.5 5.5 5 7.5 5c1.54 0 3.04.99 3.57 2.36h1.87C13.46 5.99 14.96 5 16.5 5c2 0 3.5 1.5 3.5 3.5 0 2.89-3.14 5.74-7.9 10.05z"/> 
    </symbol>
    <symbol id="ic-favorite_full" viewBox="0 0 24 24">
       <path d="M0 0h24v24H0z" fill="none"/> <path d="M12 21.35l-1.45-1.32C5.4 15.36 2 12.28 2 8.5 2 5.42 4.42 3 7.5 3c1.74 0 3.41.81 4.5 2.09C13.09 3.81 14.76 3 16.5 3 19.58 3 22 5.42 22 8.5c0 3.78-3.4 6.86-8.55 11.54L12 21.35z"/> 
    </symbol>
    <symbol id="ic-remove" viewBox="0 0 24 24">
       <path d="M19 13H5v-2h14v2z"/> <path d="M0 0h24v24H0z" fill="none"/> 
    </symbol>
    <symbol id="ic-right" viewBox="0 0 24 24">
       <path d="M8.59 16.34l4.58-4.59-4.58-4.59L10 5.75l6 6-6 6z"/> <path d="M0-.25h24v24H0z" fill="none"/> 
    </symbol>
    <symbol id="ic-search" viewBox="0 0 24 24">
       <path d="M15.5 14h-.79l-.28-.27C15.41 12.59 16 11.11 16 9.5 16 5.91 13.09 3 9.5 3S3 5.91 3 9.5 5.91 16 9.5 16c1.61 0 3.09-.59 4.23-1.57l.27.28v.79l5 4.99L20.49 19l-4.99-5zm-6 0C7.01 14 5 11.99 5 9.5S7.01 5 9.5 5 14 7.01 14 9.5 11.99 14 9.5 14z"/> <path d="M0 0h24v24H0z" fill="none"/> 
    </symbol>
    <symbol id="ic-upload" viewBox="0 0 24 24">
       <path d="M0 0h24v24H0z" fill="none"/> <path d="M19.35 10.04C18.67 6.59 15.64 4 12 4 9.11 4 6.6 5.64 5.35 8.04 2.34 8.36 0 10.91 0 14c0 3.31 2.69 6 6 6h13c2.76 0 5-2.24 5-5 0-2.64-2.05-4.78-4.65-4.96zM14 13v4h-4v-4H7l5-5 5 5h-3z"/> 
    </symbol></svg>